<svg xmlns="http://www.w3.org/2000/svg" viewBox="0 0 48 56" fill="none">
  <defs>
    <linearGradient id="blue" x1="0%" y1="0%" x2="100%" y2="100%">
      <stop offset="0%" stop-color="#1a6cc4"/>
      <stop offset="100%" stop-color="#1557a0"/>
    </linearGradient>
    <filter id="glow" x="-20%" y="-20%" width="140%" height="140%">
      <feGaussianBlur stdDeviation="1.2" result="blur"/>
      <feComposite in="SourceGraphic" in2="blur" operator="over"/>
    </filter>
  </defs>
  <g filter="url(#glow)">
    <!-- Upper loop outer stroke (white border) -->
    <path d="M10 8 Q10 4 14 4 L38 4 Q44 4 44 10 L44 28 Q44 34 38 34 L22 34 Q20 34 20 32 L20 22 Q20 20 22 20 L36 20 Q38 20 38 22 L38 26 Q38 28 36 28 L26 28 Q24 28 24 26 L24 14 Q24 12 26 12 L38 12"
          stroke="rgba(255,255,255,0.85)" stroke-width="5.5" stroke-linecap="round" stroke-linejoin="round" fill="none"/>
    <!-- Lower loop outer stroke -->
    <path d="M20 32 Q20 34 22 34 L24 34 Q26 34 26 36 L26 46 Q26 52 20 52 L14 52 Q8 52 8 46 L8 36 Q8 30 14 30 L20 30"
          stroke="rgba(255,255,255,0.85)" stroke-width="5.5" stroke-linecap="round" stroke-linejoin="round" fill="none"/>
    <!-- Upper loop blue -->
    <path d="M10 8 Q10 4 14 4 L38 4 Q44 4 44 10 L44 28 Q44 34 38 34 L22 34 Q20 34 20 32 L20 22 Q20 20 22 20 L36 20 Q38 20 38 22 L38 26 Q38 28 36 28 L26 28 Q24 28 24 26 L24 14 Q24 12 26 12 L38 12"
          stroke="url(#blue)" stroke-width="4" stroke-linecap="round" stroke-linejoin="round" fill="none"/>
    <!-- Lower loop blue -->
    <path d="M20 32 Q20 34 22 34 L24 34 Q26 34 26 36 L26 46 Q26 52 20 52 L14 52 Q8 52 8 46 L8 36 Q8 30 14 30 L20 30"
          stroke="url(#blue)" stroke-width="4" stroke-linecap="round" stroke-linejoin="round" fill="none"/>
  </g>
</svg>
